<svg width="30" height="29" viewBox="0 0 30 29" fill="none" xmlns="http://www.w3.org/2000/svg">
<path d="M3.95 -1.00098H26.05C28.225 -1.00098 30 0.765274 30 2.94902V25.0503C30 27.2253 28.2337 28.999 26.05 28.999H3.95C1.775 28.999 0 27.234 0 25.0503V2.93902C0 0.765274 1.765 -1.00098 3.95 -1.00098" fill="#5468FF"/>
<path d="M18.1262 5.69627V4.66752C18.1259 4.32227 17.9886 3.99126 17.7444 3.74725C17.5001 3.50324 17.169 3.36621 16.8237 3.36627H13.7875C13.4422 3.36621 13.1111 3.50324 12.8668 3.74725C12.6226 3.99126 12.4852 4.32227 12.485 4.66752V5.72377C12.485 5.84127 12.5937 5.92377 12.7125 5.89627C13.5714 5.64828 14.461 5.52287 15.355 5.52377C16.2212 5.52377 17.0787 5.64127 17.9075 5.86877C18.0175 5.89627 18.1262 5.81502 18.1262 5.69627V5.69627ZM9.80496 7.04252L9.28621 6.52377C9.16535 6.40282 9.02183 6.30687 8.86386 6.2414C8.7059 6.17594 8.53658 6.14225 8.36559 6.14225C8.1946 6.14225 8.02528 6.17594 7.86731 6.2414C7.70935 6.30687 7.56583 6.40282 7.44496 6.52377L6.82496 7.14252C6.70376 7.26299 6.60757 7.40624 6.54193 7.56402C6.4763 7.7218 6.4425 7.89101 6.4425 8.0619C6.4425 8.23279 6.4763 8.40199 6.54193 8.55977C6.60757 8.71756 6.70376 8.8608 6.82496 8.98127L7.33496 9.49127C7.41746 9.57252 7.53621 9.55377 7.60871 9.47252C7.90961 9.05929 8.24184 8.6698 8.60246 8.30752C8.96613 7.94262 9.35911 7.60816 9.77746 7.30752C9.86846 7.25252 9.87746 7.12502 9.80496 7.04252V7.04252ZM15.346 10.3088V14.7588C15.346 14.8863 15.4835 14.9775 15.601 14.9138L19.5572 12.8663C19.6472 12.8213 19.6747 12.7113 19.6297 12.6213C18.8097 11.1825 17.2872 10.2 15.5285 10.1363C15.4372 10.1363 15.346 10.2088 15.346 10.3088V10.3088ZM15.346 21.0288C12.0472 21.0288 9.36721 18.3525 9.36721 15.0588C9.36721 11.765 12.0472 9.09002 15.346 9.09002C18.646 9.09002 21.325 11.765 21.325 15.0588C21.325 18.3525 18.655 21.0288 15.346 21.0288V21.0288ZM15.346 6.57877C10.661 6.57877 6.86096 10.3738 6.86096 15.0588C6.86096 19.745 10.661 23.5313 15.346 23.5313C20.031 23.5313 23.831 19.7363 23.831 15.05C23.831 10.3638 20.0397 6.57877 15.346 6.57877" fill="white"/>
</svg>
