<svg width="210" height="77" viewBox="0 0 210 77" fill="none" xmlns="http://www.w3.org/2000/svg">
<rect width="210" height="77" rx="8" fill="#9A2650"/>
<path d="M74.0039 40.7692C72.1703 40.7692 70.9333 42.1835 70.9333 43.9682C70.9333 45.7534 72.1936 47.1905 73.9814 47.1905C75.1042 47.1905 75.9979 46.7964 76.6854 46.1011L78.1065 48.1875C77.2357 49.1614 75.6542 49.8568 73.9123 49.8568C70.6583 49.8568 68.1372 47.214 68.1372 43.9918C68.1372 40.7464 70.6583 38.1041 73.8668 38.1041C75.7459 38.1041 77.2357 38.7531 78.1978 39.7729L76.5937 41.7899C75.9063 41.1173 75.0813 40.7692 74.0039 40.7692Z" fill="white"/>
<path d="M80.2135 33.5831H83.0096V49.5319H80.2135V33.5831Z" fill="white"/>
<path d="M85.5528 43.9914C85.5528 40.7461 87.9363 38.1037 91.0986 38.1037C94.2384 38.1037 96.622 40.5606 96.622 43.7597C96.622 44.1073 96.5987 44.5014 96.5532 44.6868H88.4176C88.6925 46.2398 89.8612 47.3523 91.5573 47.3523C92.6573 47.3523 93.5968 46.8656 94.2384 46.1934L95.6825 48.1172C94.8571 49.0911 93.2989 49.856 91.4428 49.856C88.028 49.8564 85.5528 47.2137 85.5528 43.9914ZM88.4634 42.9021H93.7572C93.4364 41.3255 92.451 40.5147 91.1445 40.5147C89.7466 40.5147 88.7842 41.4878 88.4634 42.9021Z" fill="white"/>
<path d="M108.813 38.4282L104.848 49.5319H101.227L97.2391 38.4282H100.31L103.106 47.005L105.948 38.4282H108.813Z" fill="white"/>
<path d="M109.591 43.9914C109.591 40.746 111.974 38.1037 115.137 38.1037C118.276 38.1037 120.66 40.5606 120.66 43.7596C120.66 44.1073 120.637 44.5013 120.591 44.6868H112.456C112.731 46.2397 113.899 47.3523 115.595 47.3523C116.695 47.3523 117.635 46.8656 118.276 46.1934L119.72 48.1172C118.895 49.0911 117.337 49.856 115.481 49.856C112.066 49.8564 109.591 47.2136 109.591 43.9914ZM112.501 42.902H117.795C117.474 41.3255 116.489 40.5146 115.182 40.5146C113.785 40.5146 112.823 41.4877 112.501 42.902ZM125.861 49.5319H123.065V38.4282H125.861V39.6334C126.48 38.7063 127.396 38.1033 128.542 38.1033C129.276 38.1033 129.872 38.3119 130.307 38.6596L129.138 41.3487C128.772 41.0469 128.222 40.8619 127.694 40.8619C126.571 40.8619 125.861 41.8122 125.861 43.3192V49.5319H125.861ZM142.429 40.7692C140.595 40.7692 139.358 42.1835 139.358 43.9682C139.358 45.7534 140.618 47.1905 142.406 47.1905C143.529 47.1905 144.422 46.7964 145.11 46.1011L146.531 48.1875C145.66 49.1614 144.079 49.8568 142.337 49.8568C139.083 49.8568 136.562 47.214 136.562 43.9918C136.562 40.7464 139.083 38.1041 142.291 38.1041C144.171 38.1041 145.66 38.7531 146.622 39.7729L145.018 41.7898C144.331 41.1173 143.506 40.7692 142.429 40.7692Z" fill="white"/>
<path d="M148.638 33.5831H151.434V49.5319H148.638V33.5831Z" fill="white"/>
<path d="M153.978 43.9914C153.978 40.746 156.498 38.1037 159.684 38.1037C162.869 38.1037 165.413 40.7464 165.413 43.9914C165.413 47.2136 162.869 49.8564 159.684 49.8564C156.498 49.8564 153.978 47.2136 153.978 43.9914ZM162.594 43.9682C162.594 42.1835 161.379 40.7692 159.706 40.7692C158.011 40.7692 156.773 42.1835 156.773 43.9682C156.773 45.7534 158.011 47.1905 159.706 47.1905C161.379 47.1905 162.594 45.7534 162.594 43.9682ZM170.591 44.4318C170.591 46.0543 171.53 47.1437 172.928 47.1437C174.327 47.1437 175.266 46.0543 175.266 44.4318V38.4282H178.062V44.6404C178.062 47.7464 176.022 49.8096 172.928 49.8096C169.834 49.8096 167.795 47.7464 167.795 44.6404V38.4282H170.591V44.4318ZM191.903 33.5831V49.5319H189.084V48.3266C188.282 49.2769 187.158 49.8568 185.738 49.8568C182.827 49.8568 180.467 47.4458 180.467 43.9918C180.467 40.6305 182.69 38.1041 185.738 38.1041C187.182 38.1041 188.304 38.6368 189.084 39.5411V33.5835H191.903V33.5831ZM189.084 43.9682C189.084 42.1835 187.869 40.7692 186.196 40.7692C184.5 40.7692 183.262 42.1835 183.262 43.9682C183.262 45.7534 184.5 47.1905 186.196 47.1905C187.869 47.1905 189.084 45.7534 189.084 43.9682Z" fill="white"/>
<path d="M18.8211 30.2811L24.6213 40.4427L36.2207 20.1198L18.8211 30.2811Z" fill="white"/>
<path d="M23.7241 42.0145L18.1484 32.2457V51.7837L23.7241 42.0145Z" fill="white"/>
<path d="M25.9663 42.7994L37.5668 63.1235L49.1674 42.7994H25.9663Z" fill="white"/>
<path d="M49.1666 41.2281L37.5668 20.9048L25.9671 41.2281H49.1666Z" fill="white"/>
<path d="M51.4096 42.0145L56.9853 51.7837V32.2457L51.4096 42.0145Z" fill="white"/>
<path d="M56.3126 53.748L50.5124 43.5864L38.9122 63.9097L56.9869 53.3555L56.9865 53.3548L56.3126 53.748Z" fill="white"/>
<path d="M50.5124 40.4427L56.3126 30.2811L56.9865 30.6747L56.9869 30.6743L38.9122 20.1187L50.5124 40.4427Z" fill="white"/>
<path d="M24.6213 43.5864L18.8211 53.748L18.1484 53.3552V53.3555L36.2215 63.9097L24.6213 43.5864Z" fill="white"/>
<path d="M131.115 20.6602V24H129.99V15.4688H133.137C134.07 15.4688 134.801 15.707 135.328 16.1836C135.859 16.6602 136.125 17.291 136.125 18.0762C136.125 18.9043 135.865 19.543 135.346 19.9922C134.83 20.4375 134.09 20.6602 133.125 20.6602H131.115ZM131.115 19.7402H133.137C133.738 19.7402 134.199 19.5996 134.52 19.3184C134.84 19.0332 135 18.623 135 18.0879C135 17.5801 134.84 17.1738 134.52 16.8691C134.199 16.5645 133.76 16.4062 133.201 16.3945H131.115V19.7402ZM137.021 20.7715C137.021 20.1504 137.143 19.5918 137.385 19.0957C137.631 18.5996 137.971 18.2168 138.404 17.9473C138.842 17.6777 139.34 17.543 139.898 17.543C140.762 17.543 141.459 17.8418 141.99 18.4395C142.525 19.0371 142.793 19.832 142.793 20.8242V20.9004C142.793 21.5176 142.674 22.0723 142.436 22.5645C142.201 23.0527 141.863 23.4336 141.422 23.707C140.984 23.9805 140.48 24.1172 139.91 24.1172C139.051 24.1172 138.354 23.8184 137.818 23.2207C137.287 22.623 137.021 21.832 137.021 20.8477V20.7715ZM138.111 20.9004C138.111 21.6035 138.273 22.168 138.598 22.5938C138.926 23.0195 139.363 23.2324 139.91 23.2324C140.461 23.2324 140.898 23.0176 141.223 22.5879C141.547 22.1543 141.709 21.5488 141.709 20.7715C141.709 20.0762 141.543 19.5137 141.211 19.084C140.883 18.6504 140.445 18.4336 139.898 18.4336C139.363 18.4336 138.932 18.6465 138.604 19.0723C138.275 19.498 138.111 20.1074 138.111 20.9004ZM149.766 22.5059L150.984 17.6602H152.068L150.223 24H149.344L147.803 19.1953L146.303 24H145.424L143.584 17.6602H144.662L145.91 22.4062L147.387 17.6602H148.26L149.766 22.5059ZM155.807 24.1172C154.947 24.1172 154.248 23.8359 153.709 23.2734C153.17 22.707 152.9 21.9512 152.9 21.0059V20.8066C152.9 20.1777 153.02 19.6172 153.258 19.125C153.5 18.6289 153.836 18.2422 154.266 17.9648C154.699 17.6836 155.168 17.543 155.672 17.543C156.496 17.543 157.137 17.8145 157.594 18.3574C158.051 18.9004 158.279 19.6777 158.279 20.6895V21.1406H153.984C154 21.7656 154.182 22.2715 154.529 22.6582C154.881 23.041 155.326 23.2324 155.865 23.2324C156.248 23.2324 156.572 23.1543 156.838 22.998C157.104 22.8418 157.336 22.6348 157.535 22.377L158.197 22.8926C157.666 23.709 156.869 24.1172 155.807 24.1172ZM155.672 18.4336C155.234 18.4336 154.867 18.5938 154.57 18.9141C154.273 19.2305 154.09 19.6758 154.02 20.25H157.195V20.168C157.164 19.6172 157.016 19.1914 156.75 18.8906C156.484 18.5859 156.125 18.4336 155.672 18.4336ZM162.604 18.6328C162.439 18.6055 162.262 18.5918 162.07 18.5918C161.359 18.5918 160.877 18.8945 160.623 19.5V24H159.539V17.6602H160.594L160.611 18.3926C160.967 17.8262 161.471 17.543 162.123 17.543C162.334 17.543 162.494 17.5703 162.604 17.625V18.6328ZM166.119 24.1172C165.26 24.1172 164.561 23.8359 164.021 23.2734C163.482 22.707 163.213 21.9512 163.213 21.0059V20.8066C163.213 20.1777 163.332 19.6172 163.57 19.125C163.812 18.6289 164.148 18.2422 164.578 17.9648C165.012 17.6836 165.48 17.543 165.984 17.543C166.809 17.543 167.449 17.8145 167.906 18.3574C168.363 18.9004 168.592 19.6777 168.592 20.6895V21.1406H164.297C164.312 21.7656 164.494 22.2715 164.842 22.6582C165.193 23.041 165.639 23.2324 166.178 23.2324C166.561 23.2324 166.885 23.1543 167.15 22.998C167.416 22.8418 167.648 22.6348 167.848 22.377L168.51 22.8926C167.979 23.709 167.182 24.1172 166.119 24.1172ZM165.984 18.4336C165.547 18.4336 165.18 18.5938 164.883 18.9141C164.586 19.2305 164.402 19.6758 164.332 20.25H167.508V20.168C167.477 19.6172 167.328 19.1914 167.062 18.8906C166.797 18.5859 166.438 18.4336 165.984 18.4336ZM169.588 20.7773C169.588 19.8047 169.818 19.0234 170.279 18.4336C170.74 17.8398 171.344 17.543 172.09 17.543C172.832 17.543 173.42 17.7969 173.854 18.3047V15H174.938V24H173.941L173.889 23.3203C173.455 23.8516 172.852 24.1172 172.078 24.1172C171.344 24.1172 170.744 23.8164 170.279 23.2148C169.818 22.6133 169.588 21.8281 169.588 20.8594V20.7773ZM170.672 20.9004C170.672 21.6191 170.82 22.1816 171.117 22.5879C171.414 22.9941 171.824 23.1973 172.348 23.1973C173.035 23.1973 173.537 22.8887 173.854 22.2715V19.3594C173.529 18.7617 173.031 18.4629 172.359 18.4629C171.828 18.4629 171.414 18.668 171.117 19.0781C170.82 19.4883 170.672 20.0957 170.672 20.9004ZM184.969 20.9004C184.969 21.8691 184.746 22.6484 184.301 23.2383C183.855 23.8242 183.258 24.1172 182.508 24.1172C181.707 24.1172 181.088 23.834 180.65 23.2676L180.598 24H179.602V15H180.686V18.3574C181.123 17.8145 181.727 17.543 182.496 17.543C183.266 17.543 183.869 17.834 184.307 18.416C184.748 18.998 184.969 19.7949 184.969 20.8066V20.9004ZM183.885 20.7773C183.885 20.0391 183.742 19.4688 183.457 19.0664C183.172 18.6641 182.762 18.4629 182.227 18.4629C181.512 18.4629 180.998 18.7949 180.686 19.459V22.2012C181.018 22.8652 181.535 23.1973 182.238 23.1973C182.758 23.1973 183.162 22.9961 183.451 22.5938C183.74 22.1914 183.885 21.5859 183.885 20.7773ZM188.344 22.4121L189.82 17.6602H190.98L188.432 24.9785C188.037 26.0332 187.41 26.5605 186.551 26.5605L186.346 26.543L185.941 26.4668V25.5879L186.234 25.6113C186.602 25.6113 186.887 25.5371 187.09 25.3887C187.297 25.2402 187.467 24.9688 187.6 24.5742L187.84 23.9297L185.578 17.6602H186.762L188.344 22.4121Z" fill="white"/>
</svg>
