<svg xmlns="http://www.w3.org/2000/svg" viewBox="0 0 24 24"><title>loading</title><path d="M12,6.5A1.5,1.5,0,0,0,13.5,5V2a1.5,1.5,0,1,0-3,0V5A1.5,1.5,0,0,0,12,6.5Z"/><path d="M8.271,6.106,6.149,3.985a1.54,1.54,0,0,0-2.121,0,1.5,1.5,0,0,0,0,2.121h0L6.15,8.227a1.49,1.49,0,0,0,1.061.438h0a1.5,1.5,0,0,0,1.06-2.559Z"/><path d="M.5,12A1.5,1.5,0,0,0,2,13.5H5a1.5,1.5,0,0,0,0-3H2A1.5,1.5,0,0,0,.5,12Z"/><path d="M6.957,15.524h0a1.488,1.488,0,0,0-1.06.438L3.775,18.084A1.5,1.5,0,0,0,5.9,20.2l2.122-2.122a1.5,1.5,0,0,0-1.061-2.559Z"/><path d="M10.5,22a1.5,1.5,0,0,0,3,0V19a1.5,1.5,0,0,0-3,0Z"/><path d="M16.049,16.006a1.5,1.5,0,0,0,0,2.121l2.122,2.121A1.5,1.5,0,0,0,20.3,18.125L18.173,16A1.5,1.5,0,0,0,16.049,16.006Z"/><path d="M23.5,12A1.5,1.5,0,0,0,22,10.5H19A1.5,1.5,0,0,0,17.5,12v0A1.5,1.5,0,0,0,19,13.5h3A1.5,1.5,0,0,0,23.5,12Z"/><path d="M19.044,3.41h0a1.488,1.488,0,0,0-1.06.438l-2.12,2.12a1.5,1.5,0,0,0,0,2.123h0a1.5,1.5,0,0,0,2.121,0l2.121-2.12A1.5,1.5,0,0,0,19.044,3.41Z"/></svg>