<svg width="384" height="136" viewBox="0 0 384 136" fill="none" xmlns="http://www.w3.org/2000/svg">
<path d="M156.04 18.72C161 18.72 164.547 19.52 166.68 21.12C168.813 22.72 169.88 24.6667 169.88 26.96C169.88 29.2 169.107 31.3067 167.56 33.28C166.067 35.2 163.96 36.16 161.24 36.16C158.52 36.16 157.16 35.0133 157.16 32.72C157.16 32.5067 157.213 32.08 157.32 31.44C158.76 31.44 160.013 30.88 161.08 29.76C162.147 28.64 162.68 27.4133 162.68 26.08C162.68 24.7467 162.04 23.6533 160.76 22.8C159.48 21.9467 157.933 21.52 156.12 21.52C153.027 21.52 150.467 22.4533 148.44 24.32C146.413 26.1867 145.4 28.3733 145.4 30.88C145.4 32.2133 145.88 33.68 146.84 35.28C147.8 36.88 148.707 38.16 149.56 39.12C150.467 40.0267 151.907 41.4133 153.88 43.28C155.907 45.0933 157.107 46.1867 157.48 46.56C161.533 50.6133 163.56 55.04 163.56 59.84C163.56 64.5867 161.4 68.7467 157.08 72.32C152.76 75.84 147.587 77.6 141.56 77.6C136.653 77.6 132.68 76.8 129.64 75.2C126.653 73.6 125.16 71.0933 125.16 67.68C125.16 65.8133 125.773 64.1067 127 62.56C128.227 61.0133 129.96 60.24 132.2 60.24C134.493 60.24 136.04 61.04 136.84 62.64C134.973 64.1333 134.04 65.9467 134.04 68.08C134.04 70.16 134.733 71.7867 136.12 72.96C137.56 74.08 139.427 74.64 141.72 74.64C144.92 74.64 147.72 73.4933 150.12 71.2C152.573 68.9067 153.8 66.0267 153.8 62.56C153.8 59.04 151.507 54.8533 146.92 50C146.867 49.8933 145.933 48.9067 144.12 47.04C142.307 45.12 140.787 43.1733 139.56 41.2C138.387 39.2267 137.8 36.88 137.8 34.16C137.8 29.52 139.613 25.7867 143.24 22.96C146.867 20.1333 151.133 18.72 156.04 18.72ZM200.715 58.88C197.515 64.7467 194.048 69.3067 190.315 72.56C186.582 75.8133 182.155 77.44 177.035 77.44C171.915 77.44 169.035 76.1333 168.395 73.52L163.915 87.52C162.848 90.6667 162.048 92.6933 161.515 93.6C160.928 94.56 160.288 95.1733 159.595 95.44C158.902 95.7067 158.022 95.84 156.955 95.84H153.115C154.502 93.8133 157.302 86.8267 161.515 74.88C165.728 62.88 168.502 55.2267 169.835 51.92C171.222 48.6133 172.235 46.6133 172.875 45.92C174.155 44.64 176.368 44 179.515 44H181.915C180.368 45.0667 178.262 48.2667 175.595 53.6C180.555 46.9867 184.928 43.68 188.715 43.68C192.288 43.68 194.075 46.1333 194.075 51.04C194.075 55.0933 192.795 59.2533 190.235 63.52C187.675 67.7867 184.662 71.0933 181.195 73.44H181.835C184.022 73.44 186.235 72.56 188.475 70.8C190.768 69.04 192.742 67.0933 194.395 64.96C195.302 63.7867 196.582 61.8133 198.235 59.04C199.888 56.2133 200.768 54.8 200.875 54.8C201.302 54.8 201.515 55.2533 201.515 56.16C201.515 57.0667 201.248 57.9733 200.715 58.88ZM185.115 50.48C184.955 50.4267 184.715 50.4 184.395 50.4C183.275 50.4 182.048 50.9333 180.715 52C178.528 53.7067 176.208 56.5333 173.755 60.48C171.302 64.4267 170.075 67.6533 170.075 70.16C170.075 72.6667 170.848 73.92 172.395 73.92C175.168 73.92 178.182 71.1733 181.435 65.68C184.688 60.1867 186.315 55.8933 186.315 52.8C186.315 51.4667 185.915 50.6933 185.115 50.48ZM229.239 55.2C229.559 55.2 229.719 55.7333 229.719 56.8C229.719 57.8133 229.293 59.04 228.439 60.48C227.586 61.92 226.733 63.28 225.879 64.56C225.079 65.84 223.986 67.3333 222.599 69.04C221.213 70.7467 219.853 72.1067 218.519 73.12C215.159 75.5733 211.773 76.8 208.359 76.8C204.999 76.8 202.279 75.9467 200.199 74.24C198.119 72.48 197.079 69.8133 197.079 66.24C197.079 60.8 199.079 55.76 203.079 51.12C207.079 46.48 211.746 44.16 217.079 44.16C219.479 44.16 221.399 44.8 222.839 46.08C224.279 47.3067 224.999 48.8 224.999 50.56C224.999 53.5467 223.586 55.9467 220.759 57.76C217.933 59.5733 214.599 60.48 210.759 60.48C208.519 60.48 206.866 60.1867 205.799 59.6C204.786 62.32 204.279 64.72 204.279 66.8C204.279 71.28 206.173 73.52 209.959 73.52C212.199 73.52 214.493 72.6667 216.839 70.96C219.239 69.2 221.266 67.2533 222.919 65.12C224.626 62.9333 226.546 59.8133 228.679 55.76C228.893 55.3867 229.079 55.2 229.239 55.2ZM220.759 48.88C220.759 47.3333 220.013 46.56 218.519 46.56C216.439 46.56 214.119 47.84 211.559 50.4C208.999 52.96 207.719 55.04 207.719 56.64C207.719 57.7067 208.733 58.24 210.759 58.24C212.786 58.24 214.893 57.2533 217.079 55.28C219.319 53.3067 220.546 51.1733 220.759 48.88ZM263.671 59.92C261.698 63.2267 259.885 66 258.231 68.24C256.631 70.4267 254.791 72.3467 252.711 74C250.631 75.6533 248.738 76.48 247.031 76.48C243.885 76.48 242.311 74.7467 242.311 71.28C242.311 67.8133 244.311 60.8533 248.311 50.4C248.525 49.92 248.631 49.4133 248.631 48.88C248.631 47.76 247.911 47.2 246.471 47.2C245.085 47.2 243.698 47.6533 242.311 48.56C240.978 49.4133 239.751 50.6667 238.631 52.32C237.511 53.92 236.498 55.5733 235.591 57.28C234.685 58.9333 233.831 60.8533 233.031 63.04C232.285 65.2267 231.671 67.0667 231.191 68.56C230.765 70 230.311 71.5733 229.831 73.28C229.405 74.9333 229.165 75.84 229.111 76H221.351C221.351 74.88 223.698 68.4533 228.391 56.72C230.311 51.2267 231.271 47.3867 231.271 45.2C231.271 44.6667 231.191 44.2667 231.031 44H234.391C236.258 44 237.458 44.1867 237.991 44.56C238.525 44.9333 238.791 45.44 238.791 46.08C238.791 46.72 238.498 48.0267 237.911 50C242.391 45.7333 246.898 43.6 251.431 43.6C254.471 43.6 255.991 44.9867 255.991 47.76C255.991 48.6667 255.858 49.5733 255.591 50.48C255.325 51.3867 254.658 53.2 253.591 55.92C251.245 61.8933 250.071 65.8933 250.071 67.92C250.071 69.2 250.551 69.84 251.511 69.84C252.205 69.84 253.165 69.36 254.391 68.4C255.671 67.44 256.711 66.4533 257.511 65.44C258.365 64.3733 259.271 63.0667 260.231 61.52C261.245 59.92 262.098 58.5333 262.791 57.36C263.485 56.1867 263.885 55.6 263.991 55.6C264.311 55.6 264.471 56.1067 264.471 57.12C264.471 58.08 264.205 59.0133 263.671 59.92ZM292.595 55.52C292.915 55.52 293.075 56.0267 293.075 57.04C293.075 58.0533 292.622 59.3067 291.715 60.8C290.862 62.2933 290.168 63.44 289.635 64.24C289.155 64.9867 288.302 66.2133 287.075 67.92C285.848 69.6267 284.782 70.8533 283.875 71.6C282.968 72.3467 281.822 73.2267 280.435 74.24C278.088 75.9467 275.022 76.8 271.235 76.8C267.502 76.8 264.782 75.8667 263.075 74C261.422 72.08 260.595 69.6 260.595 66.56C260.595 60.96 262.568 55.84 266.515 51.2C270.515 46.5067 275.208 44.16 280.595 44.16C282.995 44.16 284.915 44.8 286.355 46.08C287.795 47.3067 288.515 48.8 288.515 50.56C288.515 52.2667 288.035 53.76 287.075 55.04C286.115 56.32 285.022 56.96 283.795 56.96C281.395 56.96 280.195 55.9733 280.195 54C280.195 53.36 280.862 52.7467 282.195 52.16C282.728 51.9467 283.208 51.5467 283.635 50.96C284.062 50.3733 284.275 49.6 284.275 48.64C284.275 47.2533 283.528 46.56 282.035 46.56C278.835 46.56 275.662 48.88 272.515 53.52C269.368 58.16 267.795 62.6667 267.795 67.04C267.795 71.36 269.688 73.52 273.475 73.52C278.755 73.52 283.902 69.44 288.915 61.28C289.928 59.68 290.755 58.32 291.395 57.2C292.088 56.08 292.488 55.52 292.595 55.52ZM321.427 55.2C321.747 55.2 321.907 55.7333 321.907 56.8C321.907 57.8133 321.48 59.04 320.627 60.48C319.774 61.92 318.92 63.28 318.067 64.56C317.267 65.84 316.174 67.3333 314.787 69.04C313.4 70.7467 312.04 72.1067 310.707 73.12C307.347 75.5733 303.96 76.8 300.547 76.8C297.187 76.8 294.467 75.9467 292.387 74.24C290.307 72.48 289.267 69.8133 289.267 66.24C289.267 60.8 291.267 55.76 295.267 51.12C299.267 46.48 303.934 44.16 309.267 44.16C311.667 44.16 313.587 44.8 315.027 46.08C316.467 47.3067 317.187 48.8 317.187 50.56C317.187 53.5467 315.774 55.9467 312.947 57.76C310.12 59.5733 306.787 60.48 302.947 60.48C300.707 60.48 299.054 60.1867 297.987 59.6C296.974 62.32 296.467 64.72 296.467 66.8C296.467 71.28 298.36 73.52 302.147 73.52C304.387 73.52 306.68 72.6667 309.027 70.96C311.427 69.2 313.454 67.2533 315.107 65.12C316.814 62.9333 318.734 59.8133 320.867 55.76C321.08 55.3867 321.267 55.2 321.427 55.2ZM312.947 48.88C312.947 47.3333 312.2 46.56 310.707 46.56C308.627 46.56 306.307 47.84 303.747 50.4C301.187 52.96 299.907 55.04 299.907 56.64C299.907 57.7067 300.92 58.24 302.947 58.24C304.974 58.24 307.08 57.2533 309.267 55.28C311.507 53.3067 312.734 51.1733 312.947 48.88ZM339.539 43.84L343.619 43.92H344.419C343.619 44.5067 342.472 46.24 340.979 49.12C339.539 52 338.445 54.1867 337.699 55.68C337.005 57.12 336.205 59.0933 335.299 61.6C334.445 64.0533 334.019 66.0533 334.019 67.6C334.019 69.1467 334.552 69.92 335.619 69.92C336.312 69.8667 337.272 69.3867 338.499 68.48C339.779 67.52 340.819 66.5333 341.619 65.52C342.472 64.4533 343.379 63.12 344.339 61.52C345.352 59.8667 346.205 58.4533 346.899 57.28C347.645 56.0533 348.072 55.44 348.179 55.44C348.552 55.44 348.739 55.9467 348.739 56.96C348.739 57.92 348.472 58.8533 347.939 59.76C345.645 63.5467 343.752 66.4533 342.259 68.48C340.765 70.5067 338.952 72.3733 336.819 74.08C334.739 75.7333 332.845 76.56 331.139 76.56C328.099 76.56 326.579 74.32 326.579 69.84C326.579 66.8 327.165 63.36 328.339 59.52C329.512 55.68 331.245 51.9733 333.539 48.4C331.672 49.8933 329.805 50.64 327.939 50.64C327.352 50.64 326.739 50.5067 326.099 50.24C322.312 57.7067 320.259 61.44 319.939 61.44C319.672 61.44 319.539 61.0133 319.539 60.16C319.539 59.2533 319.859 58.0267 320.499 56.48C321.192 54.88 321.912 53.36 322.659 51.92C323.459 50.48 323.885 49.68 323.939 49.52C322.019 48.56 321.059 47.0133 321.059 44.88C321.059 43.8133 321.379 42.8533 322.019 42C322.712 41.1467 323.645 40.72 324.819 40.72C325.992 40.72 326.952 41.0933 327.699 41.84C327.592 42.16 327.539 42.64 327.539 43.28C327.539 44.72 328.045 45.8667 329.059 46.72C330.125 47.52 331.405 47.92 332.899 47.92C333.325 47.92 333.645 47.8933 333.859 47.84C335.725 45.1733 337.619 43.84 339.539 43.84Z" fill="#3A416F"/>
<path d="M194.48 120L191.04 116.56C189.707 117.893 188.253 118.893 186.68 119.56C185.107 120.2 183.347 120.52 181.4 120.52C179.427 120.52 177.68 120.173 176.16 119.48C174.64 118.787 173.467 117.8 172.64 116.52C171.813 115.213 171.4 113.707 171.4 112C171.4 110.08 171.947 108.373 173.04 106.88C174.133 105.36 175.76 104.16 177.92 103.28C177.147 102.347 176.6 101.48 176.28 100.68C175.96 99.8533 175.8 98.9467 175.8 97.96C175.8 96.7333 176.107 95.64 176.72 94.68C177.36 93.72 178.267 92.96 179.44 92.4C180.613 91.84 181.973 91.56 183.52 91.56C185.093 91.56 186.427 91.8667 187.52 92.48C188.64 93.0667 189.467 93.88 190 94.92C190.56 95.96 190.787 97.12 190.68 98.4H186.12C186.147 97.4133 185.907 96.6533 185.4 96.12C184.893 95.56 184.2 95.28 183.32 95.28C182.44 95.28 181.72 95.5467 181.16 96.08C180.627 96.5867 180.36 97.2133 180.36 97.96C180.36 98.68 180.56 99.4 180.96 100.12C181.387 100.813 182.12 101.72 183.16 102.84L190.52 110.16L193.36 105.48H198.28L194.68 111.64L193.68 113.28L200.44 120H194.48ZM181.4 116.64C183.907 116.64 186.12 115.613 188.04 113.56L180.68 106.16C177.533 107.413 175.96 109.307 175.96 111.84C175.96 113.2 176.467 114.347 177.48 115.28C178.493 116.187 179.8 116.64 181.4 116.64ZM250.02 92.2L241.78 120H236.62L230.78 98.96L224.58 120L219.46 120.04L211.58 92.2H216.42L222.18 114.84L228.42 92.2H233.54L239.34 114.72L245.14 92.2H250.02ZM256.101 95.04C255.275 95.04 254.581 94.76 254.021 94.2C253.461 93.64 253.181 92.9467 253.181 92.12C253.181 91.2933 253.461 90.6 254.021 90.04C254.581 89.48 255.275 89.2 256.101 89.2C256.901 89.2 257.581 89.48 258.141 90.04C258.701 90.6 258.981 91.2933 258.981 92.12C258.981 92.9467 258.701 93.64 258.141 94.2C257.581 94.76 256.901 95.04 256.101 95.04ZM258.341 97.96V120H253.781V97.96H258.341ZM268.888 90.4V120H264.328V90.4H268.888ZM279.435 90.4V120H274.875V90.4H279.435ZM287.742 95.04C286.915 95.04 286.222 94.76 285.662 94.2C285.102 93.64 284.822 92.9467 284.822 92.12C284.822 91.2933 285.102 90.6 285.662 90.04C286.222 89.48 286.915 89.2 287.742 89.2C288.542 89.2 289.222 89.48 289.782 90.04C290.342 90.6 290.622 91.2933 290.622 92.12C290.622 92.9467 290.342 93.64 289.782 94.2C289.222 94.76 288.542 95.04 287.742 95.04ZM289.982 97.96V120H285.422V97.96H289.982ZM294.449 108.88C294.449 106.667 294.902 104.707 295.809 103C296.742 101.293 297.995 99.9733 299.569 99.04C301.169 98.08 302.929 97.6 304.849 97.6C306.582 97.6 308.089 97.9467 309.369 98.64C310.675 99.3067 311.715 100.147 312.489 101.16V97.96H317.089V120H312.489V116.72C311.715 117.76 310.662 118.627 309.329 119.32C307.995 120.013 306.475 120.36 304.769 120.36C302.875 120.36 301.142 119.88 299.569 118.92C297.995 117.933 296.742 116.573 295.809 114.84C294.902 113.08 294.449 111.093 294.449 108.88ZM312.489 108.96C312.489 107.44 312.169 106.12 311.529 105C310.915 103.88 310.102 103.027 309.089 102.44C308.075 101.853 306.982 101.56 305.809 101.56C304.635 101.56 303.542 101.853 302.529 102.44C301.515 103 300.689 103.84 300.049 104.96C299.435 106.053 299.129 107.36 299.129 108.88C299.129 110.4 299.435 111.733 300.049 112.88C300.689 114.027 301.515 114.907 302.529 115.52C303.569 116.107 304.662 116.4 305.809 116.4C306.982 116.4 308.075 116.107 309.089 115.52C310.102 114.933 310.915 114.08 311.529 112.96C312.169 111.813 312.489 110.48 312.489 108.96ZM349.758 97.6C351.491 97.6 353.038 97.96 354.398 98.68C355.785 99.4 356.865 100.467 357.638 101.88C358.438 103.293 358.838 105 358.838 107V120H354.318V107.68C354.318 105.707 353.825 104.2 352.838 103.16C351.851 102.093 350.505 101.56 348.798 101.56C347.091 101.56 345.731 102.093 344.718 103.16C343.731 104.2 343.238 105.707 343.238 107.68V120H338.718V107.68C338.718 105.707 338.225 104.2 337.238 103.16C336.251 102.093 334.905 101.56 333.198 101.56C331.491 101.56 330.131 102.093 329.118 103.16C328.131 104.2 327.638 105.707 327.638 107.68V120H323.078V97.96H327.638V100.48C328.385 99.5733 329.331 98.8667 330.478 98.36C331.625 97.8533 332.851 97.6 334.158 97.6C335.918 97.6 337.491 97.9733 338.878 98.72C340.265 99.4667 341.331 100.547 342.078 101.96C342.745 100.627 343.785 99.5733 345.198 98.8C346.611 98 348.131 97.6 349.758 97.6ZM372.641 120.36C370.907 120.36 369.347 120.053 367.961 119.44C366.601 118.8 365.521 117.947 364.721 116.88C363.921 115.787 363.494 114.573 363.441 113.24H368.161C368.241 114.173 368.681 114.96 369.481 115.6C370.307 116.213 371.334 116.52 372.561 116.52C373.841 116.52 374.827 116.28 375.521 115.8C376.241 115.293 376.601 114.653 376.601 113.88C376.601 113.053 376.201 112.44 375.401 112.04C374.627 111.64 373.387 111.2 371.681 110.72C370.027 110.267 368.681 109.827 367.641 109.4C366.601 108.973 365.694 108.32 364.921 107.44C364.174 106.56 363.801 105.4 363.801 103.96C363.801 102.787 364.147 101.72 364.841 100.76C365.534 99.7733 366.521 99 367.801 98.44C369.107 97.88 370.601 97.6 372.281 97.6C374.787 97.6 376.801 98.24 378.321 99.52C379.867 100.773 380.694 102.493 380.801 104.68H376.241C376.161 103.693 375.761 102.907 375.041 102.32C374.321 101.733 373.347 101.44 372.121 101.44C370.921 101.44 370.001 101.667 369.361 102.12C368.721 102.573 368.401 103.173 368.401 103.92C368.401 104.507 368.614 105 369.041 105.4C369.467 105.8 369.987 106.12 370.601 106.36C371.214 106.573 372.121 106.853 373.321 107.2C374.921 107.627 376.227 108.067 377.241 108.52C378.281 108.947 379.174 109.587 379.921 110.44C380.667 111.293 381.054 112.427 381.081 113.84C381.081 115.093 380.734 116.213 380.041 117.2C379.347 118.187 378.361 118.96 377.081 119.52C375.827 120.08 374.347 120.36 372.641 120.36Z" fill="#5468FF"/>
<path d="M53.9999 19.375H74.2499V32.875H53.9999V19.375Z" stroke="#3A416F" stroke-width="4.99999" stroke-linecap="round" stroke-linejoin="round"/>
<path d="M53.9999 32.875V46.375" stroke="#3A416F" stroke-width="4.99999" stroke-linecap="round" stroke-linejoin="round"/>
<path d="M41.625 93.6249H66.3749C68.8499 93.6249 70.8749 95.6049 70.8749 98.1249V120.625H37.125V98.1249C37.125 95.6049 39.105 93.6249 41.625 93.6249Z" stroke="#3A416F" stroke-width="4.99999" stroke-linecap="round" stroke-linejoin="round"/>
<path d="M53.9999 93.6249V120.625" stroke="#3A416F" stroke-width="4.99999" stroke-linecap="round" stroke-linejoin="round"/>
<path d="M10.125 76.7499H16.875" stroke="#3A416F" stroke-width="4.99999" stroke-linecap="round" stroke-linejoin="round"/>
<path d="M91.1249 76.7499H97.8749" stroke="#3A416F" stroke-width="4.99999" stroke-linecap="round" stroke-linejoin="round"/>
<path d="M13.5 63.25L16.875 76.75H91.1249L94.4999 63.25" stroke="#3A416F" stroke-width="4.99999" stroke-linecap="round" stroke-linejoin="round"/>
<path d="M97.8749 63.25H73.8899C72.0449 52.225 61.65 44.8 50.625 46.645C42.075 48.04 35.415 54.7 34.02 63.205H10.035" stroke="#3A416F" stroke-width="4.99999" stroke-linecap="round" stroke-linejoin="round"/>
<path d="M16.875 76.7499H91.1249V120.625H16.875V76.7499Z" stroke="#3A416F" stroke-width="4.99999" stroke-linecap="round" stroke-linejoin="round"/>
<path d="M3.375 120.625H104.625" stroke="#3A416F" stroke-width="4.99999" stroke-linecap="round" stroke-linejoin="round"/>
</svg>
