<svg width="35" height="44" viewBox="0 0 35 44" fill="none" xmlns="http://www.w3.org/2000/svg">
<path d="M17.5 0C12.8604 0.00533755 8.41228 1.84208 5.13155 5.10729C1.85083 8.3725 0.00536291 12.7996 0 17.4173C0 29.4205 12.0437 40.3127 15.7334 43.3653C16.2295 43.7755 16.8541 44 17.4991 44C18.144 44 18.7686 43.7755 19.2647 43.3653C22.9489 40.3127 35 29.4168 35 17.4154C34.9941 12.798 33.1485 8.37146 29.8678 5.10664C26.5871 1.84183 22.1393 0.0053366 17.5 0V0ZM17.5 26.5842C15.6783 26.5842 13.8976 26.0466 12.3829 25.0393C10.8682 24.032 9.68771 22.6004 8.99058 20.9253C8.29346 19.2503 8.11106 17.4071 8.46645 15.6289C8.82184 13.8506 9.69906 12.2172 10.9872 10.9352C12.2753 9.6532 13.9164 8.78013 15.7031 8.42642C17.4898 8.07271 19.3417 8.25425 21.0247 8.94807C22.7077 9.6419 24.1462 10.8169 25.1583 12.3244C26.1703 13.8319 26.7105 15.6042 26.7105 17.4173C26.7105 18.6211 26.4723 19.8131 26.0094 20.9253C25.5465 22.0375 24.8681 23.0481 24.0128 23.8993C23.1575 24.7505 22.1422 25.4258 21.0247 25.8864C19.9072 26.3471 18.7095 26.5842 17.5 26.5842V26.5842Z" fill="#484C7A"/>
<ellipse cx="17.5" cy="16.5" rx="13.5" ry="12.5" fill="#484C7A"/>
<g clip-path="url(#clip0)">
<path d="M26.125 17.625V25.125C26.125 25.8083 25.5583 26.375 24.875 26.375H11.125C10.4333 26.375 9.875 25.8083 9.875 25.125V17.625" stroke="white" stroke-width="1.5" stroke-linecap="round" stroke-linejoin="round"/>
<path d="M25.6233 7.625H10.375V7.62416C10.075 7.61583 9.825 7.82416 9.75833 8.1075L8.61833 13.2433C8.61833 14.2767 9.45167 15.1183 10.4933 15.1183C11.5267 15.1183 12.3683 14.2767 12.3683 13.2433C12.3683 14.2767 13.2017 15.1183 14.2433 15.1183C15.2767 15.1183 16.1183 14.2767 16.1183 13.2433C16.1183 14.2767 16.9517 15.1183 17.9933 15.1183C19.0267 15.1183 19.8683 14.2767 19.8683 13.2433C19.8683 14.2767 20.7017 15.1183 21.7433 15.1183C22.7767 15.1183 23.6183 14.2767 23.6183 13.2433C23.6183 14.2767 24.4517 15.1183 25.4933 15.1183C26.5267 15.1183 27.3683 14.2767 27.3683 13.2433L26.2267 8.1075C26.16 7.81583 25.9017 7.61583 25.61 7.61583L25.6233 7.625Z" stroke="white" stroke-width="1.5" stroke-linecap="round" stroke-linejoin="round"/>
<path d="M23.625 20.75C23.625 19.3667 22.5 18.25 21.125 18.25C19.7417 18.25 18.625 19.3667 18.625 20.75V26.375H23.625V20.75Z" stroke="white" stroke-width="1.5" stroke-linecap="round" stroke-linejoin="round"/>
<path d="M15.5 20.125H13C12.6548 20.125 12.375 20.4048 12.375 20.75V23.25C12.375 23.5952 12.6548 23.875 13 23.875H15.5C15.8452 23.875 16.125 23.5952 16.125 23.25V20.75C16.125 20.4048 15.8452 20.125 15.5 20.125Z" stroke="white" stroke-width="1.5" stroke-linecap="round" stroke-linejoin="round"/>
<path d="M21.4375 22C21.6042 22 21.75 22.1333 21.75 22.3125C21.75 22.4792 21.6083 22.625 21.4375 22.625C21.2625 22.625 21.125 22.4833 21.125 22.3125C21.125 22.1375 21.2583 22 21.4375 22Z" stroke="white" stroke-width="1.5" stroke-linecap="round" stroke-linejoin="round"/>
</g>
<defs>
<clipPath id="clip0">
<rect width="20" height="20" fill="white" transform="translate(8 7)"/>
</clipPath>
</defs>
</svg>
