<svg viewBox="0 0 30 30" xmlns="http://www.w3.org/2000/svg"><g transform="scale(1.25)"><g stroke-linecap="round" stroke-width="1.5" stroke="#000" fill="none" stroke-linejoin="round"><path d="M12 .75h4.5v3H12Z"/><path d="M12 3.75l0 3"/><path d="M9.25 17.25h5.5v0c.55 0 1 .44 1 1v5 0h-7.5v0 -5 0c0-.56.44-1 1-1Z"/><path d="M12 17.25l0 6"/><path d="M2.25 13.5l1.5 0"/><path d="M20.25 13.5l1.5 0"/><path d="M3 10.5l.75 3 16.5 0 .75-3"/><path d="M21.75 10.5h-5.33v0c-.41-2.45-2.72-4.1-5.17-3.69 -1.9.31-3.38 1.79-3.69 3.68H2.23"/><path d="M3.75 13.5h16.5v9.75H3.75Z"/><path d="M.75 23.25l22.5 0"/></g></g></svg>